<?xml version="1.0" encoding="utf-8"?>
<!-- Generator: Adobe Illustrator 16.0.3, SVG Export Plug-In . SVG Version: 6.00 Build 0)  -->
<!DOCTYPE svg PUBLIC "-//W3C//DTD SVG 1.1//EN" "http://www.w3.org/Graphics/SVG/1.1/DTD/svg11.dtd">
<svg version="1.1" id="Layer_1" xmlns="http://www.w3.org/2000/svg" xmlns:xlink="http://www.w3.org/1999/xlink" x="0px" y="0px"
	 width="120px" height="160px" viewBox="0 0 120 160" enable-background="new 0 0 120 160" xml:space="preserve">
<g>
	<path fill-rule="evenodd" clip-rule="evenodd" fill="#5B9BD5" d="M30.921,79.641c0-9.08,6.958-16.44,15.54-16.44
		s15.54,7.36,15.54,16.44s-6.958,16.44-15.54,16.44S30.921,88.721,30.921,79.641L30.921,79.641z"/>
	<path fill="none" stroke="#41719C" stroke-width="0.96" stroke-miterlimit="8" d="M30.921,79.641c0-9.08,6.958-16.44,15.54-16.44
		s15.54,7.36,15.54,16.44s-6.958,16.44-15.54,16.44S30.921,88.721,30.921,79.641L30.921,79.641z"/>
	<path fill-rule="evenodd" clip-rule="evenodd" fill="#5B9BD5" d="M81.321,35.661c0-9.046,6.957-16.38,15.54-16.38
		c8.582,0,15.539,7.334,15.539,16.38c0,9.047-6.957,16.38-15.539,16.38C88.278,52.042,81.321,44.708,81.321,35.661L81.321,35.661z"
		/>
	<path fill="none" stroke="#41719C" stroke-width="0.96" stroke-miterlimit="8" d="M81.321,35.661c0-9.046,6.957-16.38,15.54-16.38
		c8.582,0,15.539,7.334,15.539,16.38c0,9.047-6.957,16.38-15.539,16.38C88.278,52.042,81.321,44.708,81.321,35.661L81.321,35.661z"
		/>
	<path fill-rule="evenodd" clip-rule="evenodd" fill="#5B9BD5" d="M71.001,131.661c0-9.046,6.931-16.38,15.479-16.38
		c8.55,0,15.48,7.334,15.48,16.38c0,9.047-6.931,16.38-15.48,16.38C77.932,148.041,71.001,140.708,71.001,131.661L71.001,131.661z"
		/>
	<path fill="none" stroke="#41719C" stroke-width="0.96" stroke-miterlimit="8" d="M71.001,131.661
		c0-9.046,6.931-16.38,15.479-16.38c8.55,0,15.48,7.334,15.48,16.38c0,9.047-6.931,16.38-15.48,16.38
		C77.932,148.041,71.001,140.708,71.001,131.661L71.001,131.661z"/>
	<path fill-rule="evenodd" clip-rule="evenodd" fill="#5B9BD5" d="M19.761,28.461c0-9.046,6.931-16.38,15.48-16.38
		s15.48,7.334,15.48,16.38s-6.931,16.38-15.48,16.38S19.761,37.508,19.761,28.461L19.761,28.461z"/>
	<path fill="none" stroke="#41719C" stroke-width="0.96" stroke-miterlimit="8" d="M19.761,28.461c0-9.046,6.931-16.38,15.48-16.38
		s15.48,7.334,15.48,16.38s-6.931,16.38-15.48,16.38S19.761,37.508,19.761,28.461L19.761,28.461z"/>
	<path fill-rule="evenodd" clip-rule="evenodd" fill="#5B9BD5" d="M11.721,127.642c0-9.08,6.958-16.44,15.54-16.44
		s15.54,7.36,15.54,16.44c0,9.079-6.958,16.439-15.54,16.439S11.721,136.721,11.721,127.642L11.721,127.642z"/>
	<path fill="none" stroke="#41719C" stroke-width="0.96" stroke-miterlimit="8" d="M11.721,127.642c0-9.08,6.958-16.44,15.54-16.44
		s15.54,7.36,15.54,16.44c0,9.079-6.958,16.439-15.54,16.439S11.721,136.721,11.721,127.642L11.721,127.642z"/>
	<line fill="none" stroke="#5B9BD5" stroke-width="1.56" stroke-miterlimit="8" x1="50.781" y1="28.461" x2="81.394" y2="35.661"/>
	<line fill="none" stroke="#5B9BD5" stroke-width="1.56" stroke-miterlimit="8" x1="96.94" y1="52.102" x2="86.541" y2="115.291"/>
	<line fill="none" stroke="#5B9BD5" stroke-width="1.56" stroke-miterlimit="8" x1="57.501" y1="68.101" x2="85.989" y2="47.301"/>
	
		<line fill="none" stroke="#5B9BD5" stroke-width="1.56" stroke-miterlimit="8" x1="42.861" y1="127.701" x2="71.073" y2="131.701"/>
	<line fill="none" stroke="#5B9BD5" stroke-width="1.56" stroke-miterlimit="8" x1="35.545" y1="68.096" x2="35.301" y2="44.901"/>
</g>
</svg>
